HIERARCHY
ROOT joint_Root
{
	OFFSET 0.0 0.0 0.0
	CHANNELS 6 Xposition Yposition Zposition Zrotation Xrotation Yrotation 
	JOINT Hips
	{
		OFFSET 4.5925 91.4895 -427.239
		CHANNELS 6 Xposition Yposition Zposition Zrotation Xrotation Yrotation 
		JOINT Spine
		{
			OFFSET 15.7357 0.0 0.0
			CHANNELS 6 Xposition Yposition Zposition Zrotation Xrotation Yrotation 
			JOINT Chest
			{
				OFFSET 8.98455 -0.406207 0.0
				CHANNELS 6 Xposition Yposition Zposition Zrotation Xrotation Yrotation 
				JOINT Neck
				{
					OFFSET 16.3773 0.0 0.0
					CHANNELS 6 Xposition Yposition Zposition Zrotation Xrotation Yrotation 
					JOINT Head
					{
						OFFSET 6.45672 0.0 0.0
						CHANNELS 6 Xposition Yposition Zposition Zrotation Xrotation Yrotation 
						End Site
						{
							OFFSET 0.0 0.0 0.0
						}
					}
				}
				JOINT Shoulder_L
				{
					OFFSET 12.9942 -0.242716 4.98039
					CHANNELS 6 Xposition Yposition Zposition Zrotation Xrotation Yrotation 
					JOINT UpperArm_L
					{
						OFFSET 5.34809 0.0 0.0
						CHANNELS 6 Xposition Yposition Zposition Zrotation Xrotation Yrotation 
						JOINT LowerArm_L
						{
							OFFSET 24.3286 1.87007e-05 0.0
							CHANNELS 6 Xposition Yposition Zposition Zrotation Xrotation Yrotation 
							JOINT Hand_L
							{
								OFFSET 22.2916 0.0 0.0
								CHANNELS 6 Xposition Yposition Zposition Zrotation Xrotation Yrotation 
								End Site
								{
									OFFSET 0.0 0.0 0.0
								}
							}
						}
					}
				}
				JOINT Shoulder_R
				{
					OFFSET 12.9945 -0.242716 -4.98039
					CHANNELS 6 Xposition Yposition Zposition Zrotation Xrotation Yrotation 
					JOINT UpperArm_R
					{
						OFFSET -5.34813 0.0 0.0
						CHANNELS 6 Xposition Yposition Zposition Zrotation Xrotation Yrotation 
						JOINT LowerArm_R
						{
							OFFSET -24.3289 0.000322201 0.0
							CHANNELS 6 Xposition Yposition Zposition Zrotation Xrotation Yrotation 
							JOINT Hand_R
							{
								OFFSET -22.2915 -0.000108084 0.0
								CHANNELS 6 Xposition Yposition Zposition Zrotation Xrotation Yrotation 
								End Site
								{
									OFFSET 0.0 0.0 0.0
								}
							}
						}
					}
				}
			}
		}
		JOINT UpperLeg_L
		{
			OFFSET -2.19248 -6.46944 0.0
			CHANNELS 6 Xposition Yposition Zposition Zrotation Xrotation Yrotation 
			JOINT LowerLeg_L
			{
				OFFSET 39.0811 0.0 -1.23785e-05
				CHANNELS 6 Xposition Yposition Zposition Zrotation Xrotation Yrotation 
				JOINT Foot_L
				{
					OFFSET 40.9854 0.0 -1.26872e-05
					CHANNELS 6 Xposition Yposition Zposition Zrotation Xrotation Yrotation 
					JOINT Toes_L
					{
						OFFSET 11.7543 0.0 0.0
						CHANNELS 6 Xposition Yposition Zposition Zrotation Xrotation Yrotation 
						End Site
						{
							OFFSET 0.0 0.0 0.0
						}
					}
				}
			}
		}
		JOINT UpperLeg_R
		{
			OFFSET -2.19251 6.46944 0.0
			CHANNELS 6 Xposition Yposition Zposition Zrotation Xrotation Yrotation 
			JOINT LowerLeg_R
			{
				OFFSET -39.0811 -0.00228153 -0.0401928
				CHANNELS 6 Xposition Yposition Zposition Zrotation Xrotation Yrotation 
				JOINT Foot_R
				{
					OFFSET -40.9854 0.0 0.0
					CHANNELS 6 Xposition Yposition Zposition Zrotation Xrotation Yrotation 
					JOINT Toes_R
					{
						OFFSET -11.7543 0.0 0.0
						CHANNELS 6 Xposition Yposition Zposition Zrotation Xrotation Yrotation 
						End Site
						{
							OFFSET 0.0 0.0 0.0
						}
					}
				}
			}
		}
	}
}
MOTION
Frames:	8
Frame Time:	0.0333333
0.000000 0.000000 0.000000 0.000000 0.000000 -0.000000 0.353992 85.098900 -490.358000 89.009000 2.611820 -8.318920 15.735700 0.000005 -0.000001 50.763700 83.528900 -49.606100 8.984550 -0.406207 -0.000000 2.365630 -8.234630 2.486140 16.377300 -0.000001 -0.000001 -2.140870 -6.048920 1.256330 6.456720 -0.000001 -0.000000 -6.349580 -5.518670 11.327400 12.994200 -0.242716 4.980390 -89.447400 -1.978170 -74.391700 5.348090 -0.000007 -0.000001 -58.003700 13.334100 -27.123200 24.328600 0.000019 0.000005 27.624900 -15.836400 -117.539000 22.291600 -0.000001 0.000005 0.322646 5.308320 -0.165085 12.994500 -0.242716 -4.980390 87.414700 8.729200 -73.430600 -5.348130 -0.000001 -0.000004 -56.543800 36.706700 11.115300 -24.328900 0.000322 -0.000009 6.276840 -2.806130 -113.994000 -22.291500 -0.000108 -0.000004 16.296300 5.591830 -10.834800 -2.192480 -6.469440 -0.000000 -171.817000 5.010780 2.239750 39.081100 -0.000007 -0.000012 0.005621 -0.005180 47.317700 40.985400 -0.000006 -0.000013 -2.500920 6.180550 -47.658300 11.754300 -0.000000 0.000003 -0.007328 -0.082467 -19.934300 -2.192510 6.469440 -0.000001 -173.684000 11.183900 151.101000 -39.081100 -0.002282 -0.040193 0.072566 -0.051860 53.203600 -40.985400 0.000008 0.000006 8.898130 -2.129930 -82.416900 -11.754300 -0.000006 -0.000006 -0.303248 -0.366249 -16.173800
0.000000 0.000000 0.000000 0.000000 0.000000 -0.000000 0.107338 83.708400 -485.855000 88.686100 2.912970 -7.133380 15.735700 0.000005 -0.000001 55.495000 83.644100 -53.859000 8.984550 -0.406207 -0.000000 2.835850 -7.264760 3.452020 16.377300 -0.000001 -0.000001 -2.372820 -6.363790 1.432190 6.456720 -0.000001 -0.000000 -6.607990 -5.813290 10.379900 12.994200 -0.242716 4.980390 -89.913100 -0.314022 -74.529700 5.348090 -0.000007 -0.000001 -61.376000 14.725000 -21.453700 24.328600 0.000019 0.000005 28.590000 -16.442200 -117.446000 22.291600 -0.000001 0.000005 0.225356 5.334110 -0.905571 12.994500 -0.242716 -4.980390 86.974100 10.410000 -73.692900 -5.348130 -0.000001 -0.000004 -54.423700 36.058600 5.774420 -24.328900 0.000322 -0.000009 6.343220 -2.570480 -111.975000 -22.291500 -0.000108 -0.000004 18.261700 5.609310 -11.915500 -2.192480 -6.469440 -0.000000 -171.478000 6.417870 -2.606990 39.081100 -0.000007 -0.000012 -0.006913 0.004066 59.563700 40.985400 -0.000006 -0.000013 -1.517410 3.006810 -49.887100 11.754300 -0.000000 0.000003 -0.006458 -0.074947 -19.627400 -2.192510 6.469440 -0.000001 -173.876000 12.092700 154.835000 -39.081100 -0.002282 -0.040193 0.083691 -0.055249 55.526200 -40.985400 0.000008 0.000006 8.669170 -2.504990 -86.713200 -11.754300 -0.000006 -0.000006 -0.860863 -1.077650 -16.074800
0.000000 0.000000 0.000000 0.000000 0.000000 -0.000000 0.229471 83.504400 -481.571000 89.159600 1.992550 -6.228580 15.735700 0.000005 -0.000001 63.137400 84.075100 -61.488300 8.984550 -0.406207 -0.000000 2.896810 -5.419370 3.433760 16.377300 -0.000001 -0.000001 -2.314760 -6.426010 2.258220 6.456720 -0.000001 -0.000000 -6.510780 -6.214790 10.007300 12.994200 -0.242716 4.980390 -90.143800 0.512913 -74.342000 5.348090 -0.000007 -0.000001 -66.400900 17.833300 -13.045700 24.328600 0.000019 0.000005 35.044000 -18.817500 -114.701000 22.291600 -0.000001 0.000005 -1.263800 5.322630 -0.571139 12.994500 -0.242716 -4.980390 86.930800 11.086100 -74.418300 -5.348130 -0.000001 -0.000004 -54.454400 36.148200 0.065859 -24.328900 0.000322 -0.000009 10.064800 -3.424550 -108.612000 -22.291500 -0.000108 -0.000004 18.453900 5.606960 -11.762800 -2.192480 -6.469440 -0.000000 -172.616000 4.734620 -8.136020 39.081100 -0.000007 -0.000012 -0.016644 0.006399 68.988100 40.985400 -0.000006 -0.000013 2.707620 -2.268810 -53.288900 11.754300 -0.000000 0.000003 -0.005838 -0.069363 -19.399700 -2.192510 6.469440 -0.000001 -175.551000 12.875100 159.970000 -39.081100 -0.002282 -0.040193 0.069835 -0.048131 54.146300 -40.985400 0.000008 0.000006 8.599230 -1.161720 -88.743000 -11.754300 -0.000006 -0.000006 -0.775446 -0.964538 -16.250000
0.000000 0.000000 0.000000 0.000000 0.000000 -0.000000 0.458215 84.537000 -477.208000 89.797600 0.728540 -5.663570 15.735700 0.000005 -0.000001 73.869700 84.575400 -72.503800 8.984550 -0.406207 -0.000000 2.697640 -3.071880 2.801960 16.377300 -0.000001 -0.000001 -2.423880 -6.450750 3.217240 6.456720 -0.000001 -0.000000 -5.906300 -7.273310 11.343900 12.994200 -0.242716 4.980390 -90.343900 1.181160 -73.770100 5.348090 -0.000007 -0.000001 -70.795100 21.882100 -4.143120 24.328600 0.000019 0.000005 44.792400 -21.176700 -109.998000 22.291600 -0.000001 0.000005 -4.001440 5.321040 -0.514468 12.994500 -0.242716 -4.980390 87.083500 11.514800 -75.682900 -5.348130 -0.000001 -0.000004 -55.894400 36.879100 -3.714080 -24.328900 0.000322 -0.000009 12.608700 -4.021860 -107.409000 -22.291500 -0.000108 -0.000004 18.264000 5.618140 -12.491700 -2.192480 -6.469440 -0.000000 -174.698000 2.459520 -13.455800 39.081100 -0.000007 -0.000012 -0.028124 0.008329 73.515600 40.985400 -0.000006 -0.000013 6.134680 -7.076430 -56.835000 11.754300 -0.000000 0.000003 -0.005617 -0.067329 -19.316700 -2.192510 6.469440 -0.000001 -177.662000 13.316800 166.262000 -39.081100 -0.002282 -0.040193 0.048923 -0.039509 49.138300 -40.985400 0.000008 0.000006 8.790920 0.904704 -87.599800 -11.754300 -0.000006 -0.000006 -0.000558 -0.008908 -16.935700
0.000000 0.000000 0.000000 0.000000 0.000000 -0.000000 0.753946 86.530900 -472.729000 90.366200 -0.956766 -5.723170 15.735700 0.000005 -0.000001 88.170000 85.030900 -87.254900 8.984550 -0.406207 -0.000000 2.170770 -0.361796 1.835270 16.377300 -0.000001 -0.000001 -2.781570 -6.256300 4.132130 6.456720 -0.000001 -0.000000 -5.654310 -8.477250 12.706900 12.994200 -0.242716 4.980390 -90.542400 1.745380 -72.735300 5.348090 -0.000007 -0.000001 -73.172800 26.648200 3.991200 24.328600 0.000019 0.000005 48.518400 -20.655400 -107.322000 22.291600 -0.000001 0.000005 -7.175820 5.307150 -0.122887 12.994500 -0.242716 -4.980390 87.542300 10.897000 -77.209300 -5.348130 -0.000001 -0.000004 -58.875500 38.771200 -6.027090 -24.328900 0.000322 -0.000009 11.832800 -3.771090 -107.429000 -22.291500 -0.000108 -0.000004 18.920200 5.622650 -12.803400 -2.192480 -6.469440 -0.000000 -177.317000 0.249601 -18.287800 39.081100 -0.000007 -0.000012 -0.028819 0.008937 72.782400 40.985400 -0.000006 -0.000013 7.400250 -8.931570 -59.580400 11.754300 -0.000000 0.000003 -0.005080 -0.062247 -19.109500 -2.192510 6.469440 -0.000001 -179.764000 13.085400 171.979000 -39.081100 -0.002282 -0.040193 0.037952 -0.037499 42.764100 -40.985400 0.000008 0.000006 9.395700 3.409420 -82.050000 -11.754300 -0.000006 -0.000006 -0.013732 -0.129678 -21.862100
0.000000 0.000000 0.000000 0.000000 0.000000 -0.000000 1.141890 89.049400 -468.238000 90.755400 -2.794240 -6.693500 15.735700 0.000005 -0.000001 104.993000 85.388000 -104.639000 8.984550 -0.406207 -0.000000 1.137970 2.364800 0.684551 16.377300 -0.000001 -0.000001 -3.326260 -6.035150 4.690530 6.456720 -0.000001 -0.000000 -5.811970 -9.278370 13.487300 12.994200 -0.242716 4.980390 -90.576700 1.751710 -71.774100 5.348090 -0.000007 -0.000001 -74.393300 31.391200 11.283400 24.328600 0.000019 0.000005 48.052400 -19.744600 -106.889000 22.291600 -0.000001 0.000005 -9.837410 5.311690 -0.258587 12.994500 -0.242716 -4.980390 88.089300 9.564070 -78.648500 -5.348130 -0.000001 -0.000004 -62.117600 41.233900 -7.679230 -24.328900 0.000322 -0.000009 11.506000 -3.680390 -107.502000 -22.291500 -0.000108 -0.000004 19.103100 5.623830 -12.887600 -2.192480 -6.469440 -0.000000 -179.932000 -1.752510 -22.502400 39.081100 -0.000007 -0.000012 -0.020637 0.008768 66.993400 40.985400 -0.000006 -0.000013 6.444950 -8.293060 -62.170600 11.754300 -0.000000 0.000003 -0.005701 -0.068106 -19.348400 -2.192510 6.469440 -0.000001 178.138000 13.928700 175.540000 -39.081100 -0.002282 -0.040193 0.033764 -0.040209 37.162100 -40.985400 0.000008 0.000006 9.702800 7.682410 -72.734700 -11.754300 -0.000006 -0.000006 -0.057246 -0.322716 -29.890700
0.000000 0.000000 0.000000 0.000000 0.000000 -0.000000 1.568250 91.452000 -463.714000 90.630300 -4.283970 -7.554220 15.735700 0.000005 -0.000001 119.477000 85.385600 -119.563000 8.984550 -0.406207 -0.000000 0.274303 4.545600 -0.184260 16.377300 -0.000001 -0.000001 -3.986360 -5.609340 4.825170 6.456720 -0.000001 -0.000000 -6.208820 -9.678090 13.313700 12.994200 -0.242716 4.980390 -90.394200 1.134650 -70.835400 5.348090 -0.000007 -0.000001 -75.586500 35.254300 17.584100 24.328600 0.000019 0.000005 44.664900 -18.452300 -107.757000 22.291600 -0.000001 0.000005 -10.312400 5.321820 -0.547893 12.994500 -0.242716 -4.980390 88.549900 8.191790 -79.927600 -5.348130 -0.000001 -0.000004 -63.474700 44.225000 -9.827310 -24.328900 0.000322 -0.000009 10.203500 -3.344980 -107.962000 -22.291500 -0.000108 -0.000004 19.013100 5.617740 -12.475200 -2.192480 -6.469440 -0.000000 178.093000 -3.529240 -24.920600 39.081100 -0.000007 -0.000012 -0.013711 0.008889 57.056900 40.985400 -0.000006 -0.000013 5.169150 -6.591230 -63.670800 11.754300 -0.000000 0.000003 -0.004782 -0.059350 -18.991500 -2.192510 6.469440 -0.000001 176.372000 15.894900 177.956000 -39.081100 -0.002282 -0.040193 0.039776 -0.056093 33.038300 -40.985400 0.000008 0.000006 9.772810 12.768500 -61.678600 -11.754300 -0.000006 -0.000006 -0.127161 -0.507489 -37.906400
0.000000 0.000000 0.000000 0.000000 0.000000 -0.000000 1.849450 93.183600 -459.134000 89.710500 -5.014830 -7.939320 15.735700 0.000005 -0.000001 127.212000 85.206100 -127.433000 8.984550 -0.406207 -0.000000 -0.116129 5.812160 -0.436500 16.377300 -0.000001 -0.000001 -4.699330 -5.076000 4.562880 6.456720 -0.000001 -0.000000 -6.860230 -9.509230 12.336800 12.994200 -0.242716 4.980390 -90.073000 0.200423 -69.960300 5.348090 -0.000007 -0.000001 -76.339700 37.578000 22.477300 24.328600 0.000019 0.000005 39.026600 -16.932300 -109.765000 22.291600 -0.000001 0.000005 -10.388700 5.331000 -0.813103 12.994500 -0.242716 -4.980390 88.855600 7.024420 -80.723600 -5.348130 -0.000001 -0.000004 -62.313700 47.371000 -13.337500 -24.328900 0.000322 -0.000009 8.812640 -2.999810 -108.653000 -22.291500 -0.000108 -0.000004 18.596300 5.616050 -12.353200 -2.192480 -6.469440 -0.000000 177.329000 -5.434580 -25.322800 39.081100 -0.000007 -0.000012 -0.009235 0.009509 44.170100 40.985400 -0.000006 -0.000013 3.771890 -4.629740 -63.999700 11.754300 -0.000000 0.000003 -0.004094 -0.052419 -18.709100 -2.192510 6.469440 -0.000001 175.403000 18.307000 -179.947000 -39.081100 -0.002282 -0.040193 0.053847 -0.086128 30.407300 -40.985400 0.000008 0.000006 8.836810 17.771100 -51.279600 -11.754300 -0.000006 -0.000006 -0.171982 -0.596401 -41.944100
